<?xml version="1.0" encoding="utf-8"?>
<!-- Generator: Adobe Illustrator 17.0.0, SVG Export Plug-In . SVG Version: 6.00 Build 0)  -->
<!DOCTYPE svg PUBLIC "-//W3C//DTD SVG 1.1//EN" "http://www.w3.org/Graphics/SVG/1.1/DTD/svg11.dtd">
<svg version="1.1" id="Layer_1" xmlns="http://www.w3.org/2000/svg" xmlns:xlink="http://www.w3.org/1999/xlink" x="0px" y="0px"
	 width="127.926px" height="31.574px" viewBox="0 0 127.926 31.574" enable-background="new 0 0 127.926 31.574"
	 xml:space="preserve">
<g>
	<g>
		<path opacity="0.5" fill="#555760" enable-background="new    " d="M107.654,19.705c2.416,2.498-1.363,6.195-3.843,3.789
			C101.294,21.057,105.255,17.219,107.654,19.705C108.152,20.22,107.156,19.188,107.654,19.705z M126.939,18.221
			c0.636,0,0.963,0.623,0.987,1.869c0,2.43-1.44,3.645-4.32,3.645h-11.598c-0.476,0-0.715-0.214-0.715-0.645v-2.902
			c0-0.451,0.239-0.677,0.715-0.677h10.883c0.884,0,1.372-0.301,1.463-0.904c0-0.259,0.215-0.386,0.645-0.386H126.939z"/>
		<path opacity="0.5" fill="#555760" enable-background="new    " d="M114.462,14.233c-2.122-2.303-2.503-6.033-1.548-8.931
			c1.046-3.172,3.922-4.823,7.159-4.823c3.124,0,5.96,1.527,7.093,4.548c1.103,2.943,0.726,6.848-1.464,9.206
			c-1.35,1.452-3.226,2.177-5.629,2.177C117.67,16.409,115.799,15.684,114.462,14.233z M123.305,8.444c0-1.469-0.283-3.308-1.773-4
			c-1.213-0.565-2.949-0.369-3.821,0.706c-1.045,1.289-1.039,3.452-0.709,4.99c0.341,1.584,1.424,2.595,3.071,2.595
			C122.227,12.733,123.305,11.303,123.305,8.444z"/>
		<path opacity="0.9" fill="#232838" enable-background="new    " d="M17.383,22.851c0,1.26-2.325,1.009-3.069,0.854
			c-1.2-0.249-2.008-1.067-2.163-2.294c-1.714,2.808-6.551,3.295-9.047,1.296c-1.579-1.263-1.927-3.803-0.672-5.424
			c1.27-1.642,3.725-1.857,5.633-1.857h3.579v-1.857c0-2.172-2.637-3.199-4.322-1.856c-0.685,0.548-0.679,1.327-0.54,2.113
			c0,0.235-0.237,0.352-0.709,0.352h-2.43c-2.009,0-0.685-3.648,0.049-4.394C5.191,8.26,7.557,7.995,9.584,8.035
			c1.651,0.033,3.456,0.321,4.76,1.422c1.253,1.058,1.688,2.684,1.688,4.272v5.314c0,0.769,0.281,1.227,0.844,1.376
			c0.337,0.086,0.506,0.299,0.506,0.641L17.383,22.851C17.382,22.851,17.383,22.851,17.383,22.851z M11.644,17.634H8.471
			c-0.683,0-1.556,0.07-2.032,0.636c-0.498,0.592-0.359,1.561,0.26,2.006c1.434,1.028,4.017,0.137,4.71-1.424l0.237-0.608
			C11.644,18.244,11.644,17.634,11.644,17.634z"/>
		<path opacity="0.9" fill="#232838" enable-background="new    " d="M21.231,12.801c0-0.747-0.27-1.184-0.81-1.313
			c-0.36-0.128-0.54-0.373-0.54-0.736V8.957c0-1.133,2.13-0.938,2.803-0.835c1.223,0.189,2.138,0.931,2.363,2.178v0.384
			c0.88-2.474,3.837-2.917,6.126-2.563c3.031,0.469,4.475,3.131,4.475,6.02v4.93c0,0.747,0.259,1.184,0.777,1.313
			c0.383,0.149,0.573,0.384,0.573,0.705v1.793c0,1.445-3.046,0.929-3.827,0.597c-1.494-0.638-1.946-2.23-1.946-3.735v-5.217
			c0-0.854-0.23-1.537-0.692-2.049c-1.032-1.148-3.206-1.012-4.134,0.192c-0.495,0.641-0.754,1.355-0.777,2.145v8.163
			c0,0.448-0.225,0.672-0.675,0.672h-3.038c-0.45,0-0.675-0.224-0.675-0.672V12.801H21.231z"/>
		<path opacity="0.9" fill="#232838" enable-background="new    " d="M48.916,21.602c3.245,0,6.957,1.476,6.516,5.337
			c-0.4,3.513-4.066,4.455-7.027,4.593c-2.633,0.122-6.241,0.104-8.276-1.888c-1.979-1.937-1.249-4.946,0.854-6.441
			c-0.251-0.24-0.498-0.457-0.725-0.72c-0.102-0.116-0.18-0.23-0.237-0.337c-0.056-0.107-0.117-0.23-0.186-0.368
			c-0.068-0.139-0.117-0.287-0.152-0.448c-0.326-1.564,0.634-2.91,2.076-3.409c-2.04-1.762-2.536-4.816-0.96-7.071
			c1.638-2.343,4.934-3.14,7.629-2.708c0.461,0.075,0.725,0.112,0.793,0.112c0.878,0.042,1.671-0.192,2.381-0.705
			c0.709-0.512,1.087-1.078,1.131-1.697c0.023-0.32,0.248-0.458,0.675-0.416l2.025,0.257c0.315,0.064,0.473,0.213,0.473,0.448
			c-0.044,1.046-0.439,1.867-1.181,2.464c-0.743,0.598-1.598,0.928-2.566,0.992c2.497,1.612,3.249,5.115,1.478,7.575
			c-1.973,2.739-6.057,3.338-9.074,2.315c-0.704,0-1.587,0.19-1.587,1.056c0,0.906,1.016,1.056,1.721,1.056L48.916,21.602
			L48.916,21.602z M44.932,24.548c-1.34,0-2.558,0.89-2.083,2.381c0.517,1.621,3.264,1.445,4.552,1.425
			c1.2-0.019,3.387,0.036,3.974-1.316c0.735-1.692-0.929-2.491-2.324-2.491L44.932,24.548L44.932,24.548z M49.591,12.049
			c-1.191-0.982-3.246-1.027-4.517-0.171c-1.392,0.939-1.499,3.031-0.226,4.123c1.244,1.067,3.494,1.053,4.742,0
			c0.608-0.512,0.912-1.173,0.912-1.984C50.503,13.206,50.2,12.549,49.591,12.049z"/>
		<path opacity="0.9" fill="#232838" enable-background="new    " d="M69.663,22.931c-2.959,1.648-7.396,1.184-9.858-1.152
			c-2.963-2.808-2.977-8.698-0.219-11.652c2.19-2.344,6.636-2.799,9.433-1.336c1.173,0.613,2.016,1.65,2.489,2.879
			c0.261,0.677,0.417,1.393,0.505,2.112c0.078,0.638,0.354,1.933-0.056,2.491c-0.102,0.139-0.31,0.208-0.625,0.208h-9.25v0.16
			c0.023,1.302,0.461,2.256,1.317,2.865c1.997,1.419,4.505,1.058,6.245-0.591c0.315-0.299,0.563-0.341,0.743-0.128l1.553,1.504
			c0.248,0.235,0.281,0.47,0.102,0.705C71.548,21.678,70.754,22.323,69.663,22.931 M67.924,14.144c0-1.588-0.827-2.721-2.467-2.81
			c-1.844-0.1-2.975,1.043-3.272,2.81H67.924z"/>
		<path opacity="0.9" fill="#232838" enable-background="new    " d="M81.598,22.883c0,0.598-0.652,0.907-1.958,0.928
			c-2.543,0-3.815-1.355-3.815-4.065V1.085c0-0.448,0.225-0.672,0.675-0.672h3.072c0.45,0,0.675,0.235,0.675,0.705v17.956
			c0,0.725,0.237,1.153,0.71,1.281c0.139,0.062,0.28,0.121,0.422,0.177c0.056,0.033,0.107,0.096,0.152,0.192
			c0.044,0.097,0.067,0.208,0.067,0.337V22.883L81.598,22.883z"/>
		<path opacity="0.9" fill="#232838" enable-background="new    " d="M99.964,22.851c0,1.26-2.325,1.009-3.069,0.854
			c-1.2-0.249-2.008-1.067-2.163-2.294c-1.948,3.191-8.744,3.609-10.219-0.274c-0.537-1.414-0.246-3.229,0.885-4.274
			c1.365-1.262,3.485-1.438,5.25-1.438h3.579v-1.857c0-2.172-2.637-3.199-4.322-1.856c-0.685,0.548-0.679,1.327-0.54,2.113
			c0,0.235-0.237,0.352-0.709,0.352h-2.431c-2.009,0-0.685-3.648,0.049-4.394c1.499-1.524,3.865-1.789,5.892-1.749
			c1.651,0.033,3.456,0.321,4.76,1.422c1.253,1.058,1.688,2.684,1.688,4.272v5.314c0,0.769,0.281,1.227,0.844,1.376
			c0.339,0.086,0.506,0.299,0.506,0.641L99.964,22.851L99.964,22.851z M94.224,17.634h-3.173c-0.683,0-1.556,0.07-2.032,0.636
			c-0.498,0.592-0.359,1.561,0.26,2.006c1.434,1.028,4.017,0.137,4.71-1.424l0.237-0.608C94.224,18.244,94.224,17.634,94.224,17.634
			z"/>
	</g>
</g>
</svg>
