<?xml version="1.0" encoding="utf-8"?>
<!-- Generator: Adobe Illustrator 22.1.0, SVG Export Plug-In . SVG Version: 6.00 Build 0)  -->
<svg version="1.1" id="Layer_1" xmlns="http://www.w3.org/2000/svg" xmlns:xlink="http://www.w3.org/1999/xlink" x="0px" y="0px"
	 viewBox="0 0 133.9 31.6" style="enable-background:new 0 0 133.9 31.6;" xml:space="preserve">
<style type="text/css">
	.st0{opacity:0.9;enable-background:new    ;}
	.st1{fill:#232838;}
	.st2{fill:#E73828;}
</style>
<g class="st0">
	<path class="st1" d="M24.8,15l-1.2,3h1.9h0.3c0.8,0,1.2,0.4,1.2,1.1c0,0.5-0.2,0.9-0.5,1.1s-0.9,0.4-1.5,0.4h-2.2
		c-0.7,0-1.3-0.2-1.7-0.5c-0.4-0.3-0.6-0.8-0.6-1.3c0-0.4,0.1-0.7,0.3-1.1l0.2-0.4l0.9-2.2h-3.5l-2.1,5.3c-1.5,3.6-3.7,5.4-6.6,5.4
		c-1.5,0-2.8-0.5-3.8-1.5c-1-1-1.5-2.2-1.5-3.7c0-1.2,0.3-2.3,0.9-3.3c0.6-1.1,1.4-2,2.5-2.7c0.9-0.6,1.9-1.1,3.1-1.5
		c1.2-0.4,2.4-0.6,3.5-0.6l1.6,0l0.5,0l2.1-5.3l0.1-0.3c0.4-0.9,0.9-1.3,1.7-1.3c0.4,0,0.7,0.1,0.9,0.3c0.2,0.2,0.4,0.5,0.4,0.8
		c0,0.2-0.1,0.6-0.3,1.1l-1.9,4.6h3.5l2.1-5.2l0.1-0.3c0.4-0.9,1-1.3,1.8-1.3c0.3,0,0.6,0.1,0.9,0.3C27.9,6.1,28,6.3,28,6.7
		c0,0.2-0.1,0.6-0.3,1.2l-1.9,4.6h0.8H27c0.8,0,1.2,0.4,1.2,1.1c0,0.5-0.2,0.9-0.5,1.1S26.8,15,26.2,15H24.8z M15.2,15h-0.6
		c-2.2,0-3.9,0.5-5.2,1.5c-0.7,0.5-1.2,1.1-1.6,1.8c-0.4,0.7-0.6,1.3-0.6,2c0,0.8,0.2,1.4,0.7,1.9c0.5,0.5,1,0.8,1.7,0.8
		c1.5,0,2.8-1.3,3.8-3.8L15.2,15z"/>
	<path class="st1" d="M32,12.1c1.1,0,1.9,0.3,2.6,1c0.7,0.7,1,1.5,1,2.6c0,0.8-0.2,1.6-0.5,2.3c-0.4,0.8-0.8,1.4-1.4,1.8
		c-0.4,0.3-0.8,0.5-1.2,0.6c-0.4,0.1-1,0.2-1.7,0.2c-1.2,0-2-0.1-2.4-0.4c-1-0.7-1.5-1.7-1.5-3c0-1.4,0.5-2.6,1.5-3.6
		C29.5,12.6,30.7,12.1,32,12.1z M31.8,14.4c-0.5,0-1,0.3-1.5,0.8c-0.4,0.5-0.7,1.1-0.7,1.8c0,0.8,0.5,1.3,1.4,1.3
		c0.6,0,1-0.2,1.3-0.5c0.5-0.6,0.7-1.2,0.7-1.9c0-0.4-0.1-0.8-0.4-1C32.5,14.6,32.2,14.4,31.8,14.4z"/>
	<path class="st1" d="M42.7,18.2H44c0.9,0,1.4,0.3,1.4,1c0,0.4-0.2,0.8-0.5,1c-0.3,0.2-0.8,0.4-1.4,0.4h-2.3c-0.4,0-0.8-0.1-1.1-0.4
		c-0.3-0.3-0.5-0.6-0.5-1c0-0.2,0.1-0.6,0.3-1.1l1-2.4c0.1-0.2,0.2-0.4,0.2-0.6c0-0.2-0.1-0.3-0.2-0.4c-0.1-0.1-0.3-0.2-0.6-0.2
		c-0.8,0-1.4,0.6-1.8,1.7l-1.3,3.2c-0.4,1-1,1.4-1.7,1.4c-0.3,0-0.6-0.1-0.8-0.3c-0.2-0.2-0.3-0.4-0.3-0.7c0-0.2,0.1-0.4,0.2-0.7
		l0.1-0.3l2.2-5.5c0.3-0.7,0.8-1.1,1.5-1.1c0.6,0,1,0.2,1.2,0.7c0.8-0.6,1.5-0.9,2.2-0.9c0.7,0,1.3,0.2,1.7,0.6
		c0.4,0.4,0.7,0.9,0.7,1.5c0,0.3-0.1,0.7-0.2,1.1L42.7,18.2z"/>
	<path class="st1" d="M50.6,20.9h1.3c0.9,0,1.4,0.3,1.4,1c0,0.4-0.2,0.8-0.5,1c-0.3,0.3-0.8,0.4-1.4,0.4h-1.8l-0.5,1.1
		c-1.1,2.7-2.8,4.1-4.9,4.1c-1.1,0-2.1-0.3-2.8-1c-0.7-0.7-1.1-1.6-1.1-2.6c0-0.7,0.2-1.3,0.5-1.9c0.4-0.6,0.9-1.1,1.5-1.4
		c0.8-0.4,1.8-0.6,3.1-0.6h2.4l0.3-0.9c-0.5,0.3-0.9,0.4-1.3,0.4c-0.8,0-1.4-0.3-1.9-0.8c-0.5-0.5-0.7-1.2-0.7-2.1
		c0-1.4,0.5-2.7,1.5-3.8c1-1.1,2.1-1.7,3.3-1.7c0.9,0,1.6,0.3,2,0.9c0.3-0.6,0.8-0.9,1.5-0.9c0.3,0,0.6,0.1,0.8,0.3s0.3,0.4,0.3,0.7
		c0,0.2-0.1,0.6-0.3,1L50.6,20.9z M46.8,23.3h-1.9c-0.7,0-1.2,0.1-1.5,0.4c-0.4,0.3-0.5,0.7-0.5,1.2c0,0.3,0.1,0.6,0.4,0.9
		c0.2,0.2,0.6,0.4,0.9,0.4c0.5,0,1-0.2,1.4-0.6C45.9,25.1,46.4,24.4,46.8,23.3z M49.1,17.7l0.9-2.2c0.1-0.2,0.1-0.3,0.1-0.4
		c0-0.2-0.1-0.4-0.3-0.5s-0.4-0.2-0.7-0.2c-0.5,0-1,0.3-1.5,0.9c-0.5,0.6-0.7,1.2-0.7,1.9c0,0.8,0.4,1.2,1.1,1.2
		C48.6,18.2,49,18,49.1,17.7z"/>
	<path class="st1" d="M75.4,8.3L71.5,18H73c1,0,1.5,0.4,1.5,1.1c0,0.5-0.2,0.9-0.5,1.1c-0.4,0.3-0.8,0.4-1.5,0.4h-2l-0.8,2
		c-0.9,2.2-1.8,3.8-2.8,4.7c-1,0.9-2.2,1.4-3.6,1.4c-1.4,0-2.5-0.5-3.4-1.4c-0.9-0.9-1.4-2-1.4-3.4c0-1,0.3-2,0.8-2.8
		c0.5-0.9,1.3-1.6,2.3-2.1c1.3-0.7,3-1,5.2-1l1.7,0l0.4-0.9c-0.4,0.2-0.8,0.3-1.3,0.3c-1,0-1.9-0.3-2.6-1c-0.7-0.6-1-1.4-1-2.4
		c0-0.5,0.2-1.2,0.5-2.2l0.2-0.6l0.2-0.6c0.2-0.5,0.3-0.8,0.3-1.2c0-0.4-0.2-0.7-0.5-0.9c-0.3-0.2-0.7-0.4-1.1-0.4
		c-0.7,0-1.3,0.3-1.9,1c-0.6,0.6-0.9,1.3-0.9,2.1c0,0.4,0.1,0.8,0.3,1c0.2,0.3,0.5,0.5,1.1,0.7c0.5,0.2,0.8,0.5,0.8,1
		c0,0.4-0.2,0.8-0.5,1c-0.3,0.3-0.7,0.4-1.2,0.4c-0.9,0-1.7-0.4-2.4-1.2c-0.7-0.8-1-1.7-1-2.8c0-1.6,0.6-3,1.8-4.2
		C61,6,62.4,5.5,64,5.5c1.2,0,2.2,0.4,3,1.1c0.8,0.7,1.2,1.6,1.2,2.7c0,0.5-0.1,1-0.3,1.5L67.4,12c-0.3,0.7-0.4,1.2-0.4,1.5
		c0,0.3,0.1,0.6,0.4,0.9s0.6,0.4,0.9,0.4c0.5,0,1-0.2,1.3-0.6c0.4-0.4,0.7-1,1.1-2L72.9,7c0.2-0.5,0.5-0.9,0.8-1.1
		c0.3-0.2,0.7-0.3,1.3-0.3h2.6c1,0,1.5,0.3,1.5,1c0,0.5-0.2,0.9-0.5,1.2c-0.4,0.3-0.9,0.4-1.5,0.4H75.4z M67.4,20.6
		c-1.5,0-2.7,0.1-3.5,0.4c-0.8,0.3-1.4,0.7-1.8,1.2c-0.4,0.5-0.7,1.1-0.7,1.7c0,0.6,0.2,1.1,0.6,1.4c0.4,0.4,0.8,0.6,1.4,0.6
		c0.7,0,1.3-0.3,1.8-0.9s1.1-1.5,1.6-2.9L67.4,20.6z"/>
	<path class="st1" d="M82.1,18.2h1.2c0.9,0,1.4,0.3,1.4,1c0,0.4-0.2,0.8-0.5,1c-0.3,0.3-0.8,0.4-1.4,0.4h-1.4
		c-0.6,0-1.1-0.2-1.3-0.7c-0.5,0.5-1.1,0.7-1.6,0.7h-1.3c-0.8,0-1.5-0.3-1.9-0.9c-0.5-0.6-0.7-1.3-0.7-2.3c0-1.4,0.5-2.7,1.5-3.8
		c1-1.1,2.1-1.7,3.3-1.7c0.9,0,1.6,0.3,2,1c0.4-0.5,0.8-0.8,1.4-0.8c0.3,0,0.6,0.1,0.8,0.3c0.2,0.2,0.3,0.5,0.3,0.8
		c0,0.2-0.1,0.4-0.2,0.7l-0.1,0.3L82.1,18.2z M78.1,18.3h0.3c0.6,0,1-0.2,1.2-0.7l0.8-1.9c0.1-0.2,0.2-0.5,0.2-0.6
		c0-0.2-0.1-0.4-0.3-0.5c-0.2-0.1-0.4-0.2-0.7-0.2c-0.5,0-1.1,0.3-1.6,0.9c-0.5,0.6-0.8,1.3-0.8,1.9C77.2,17.9,77.5,18.3,78.1,18.3z
		"/>
	<path class="st1" d="M91.5,18.2h1.3c0.9,0,1.4,0.3,1.4,1c0,0.4-0.2,0.8-0.5,1c-0.3,0.2-0.8,0.4-1.4,0.4h-2.3
		c-0.4,0-0.8-0.1-1.1-0.4c-0.3-0.3-0.5-0.6-0.5-1c0-0.2,0.1-0.6,0.3-1.1l1-2.4c0.1-0.2,0.2-0.4,0.2-0.6c0-0.2-0.1-0.3-0.2-0.4
		c-0.2-0.1-0.3-0.2-0.6-0.2c-0.8,0-1.4,0.6-1.8,1.7l-1.3,3.2c-0.4,1-1,1.4-1.7,1.4c-0.3,0-0.6-0.1-0.8-0.3c-0.2-0.2-0.3-0.4-0.3-0.7
		c0-0.2,0.1-0.4,0.2-0.7l0.1-0.3l2.2-5.5c0.3-0.7,0.8-1.1,1.5-1.1c0.6,0,1,0.2,1.2,0.7c0.8-0.6,1.5-0.9,2.2-0.9
		c0.7,0,1.3,0.2,1.7,0.6s0.7,0.9,0.7,1.5c0,0.3-0.1,0.7-0.2,1.1L91.5,18.2z"/>
</g>
<g>
	<path class="st2" d="M115.6,14.8c15.2-2.8,13.9-10.3,13.9-10.3s-1.2,5.2-7.8,6.6c-4.6,1-8.5,0.3-10.4-0.2c-0.8-0.2-1.3-0.9-1.3-1.7
		c0-9.3,10.3-7.7,10.3-7.7c-11-1.9-14.3,4.7-14.9,6.1c-0.1,0.3-0.3,0.5-0.5,0.8c-0.6,0.6-1.9,1.3-3.4-1.5c-3.1-5.4-9,0.5-9,0.5
		s2,0.9,3.2,2.2c1.3,1.5,2.3,6,2.3,6c4.3,10.2,11.4,8.8,11.4,8.8c-2.6-1.1-2.5-3.8-2.2-5.4c0.1-0.7,0.8-1.1,1.4-0.9
		c13.2,3.6,19-5.4,19-5.4C124,17.5,115.6,14.8,115.6,14.8z M97.6,8.2c-0.1,0-0.1,0-0.2,0c-0.2,0-0.4-0.1-0.4-0.3
		c-0.1-0.2-0.1-0.5-0.1-0.6c0-0.1,0-0.2,0-0.2c0-0.3,0.2-0.5,0.4-0.5c0.3,0,0.5,0.2,0.5,0.4c0,0.1,0,0.2,0,0.3c0,0.1,0,0.2,0,0.3
		C98,7.9,97.8,8.1,97.6,8.2z M99.2,8.8C99.2,8.8,99.2,8.8,99.2,8.8l-0.5,0c-0.3,0-0.5-0.2-0.4-0.5c0-0.3,0.2-0.5,0.5-0.4l0.5,0
		c0.3,0,0.5,0.2,0.4,0.5C99.7,8.6,99.4,8.8,99.2,8.8z"/>
</g>
</svg>
